# Blender v2.79 (sub 0) OBJ File: ''
# www.blender.org
mtllib snakeHead.mtl
o SnakeHead_SnakeSegment_Cube.008
v 0.000000 -0.000000 0.550000
v 0.000000 0.423500 0.000000
v -0.550000 -0.000000 -0.000000
v 0.000000 0.296450 -0.600000
v 0.550000 -0.000000 -0.000000
v 0.000000 -0.423500 -0.000000
v -0.385000 -0.000000 -0.600000
v 0.385000 -0.000000 -0.600000
v 0.000000 -0.296450 -0.600000
v 0.000000 -0.000000 -1.200000
vn -0.5208 0.6764 0.5208
vn -0.6017 0.7814 -0.1655
vn 0.6017 -0.7814 -0.1655
vn 0.5208 0.6764 0.5208
vn 0.6017 0.7814 -0.1655
vn 0.5208 -0.6764 0.5208
vn -0.6017 -0.7814 -0.1655
vn -0.5208 -0.6764 0.5208
vn -0.5681 0.7378 -0.3645
vn 0.5681 -0.7378 -0.3645
vn -0.5681 -0.7378 -0.3645
vn 0.5681 0.7378 -0.3645
usemtl None.001
s off
f 1//1 2//1 3//1
f 3//2 2//2 4//2 7//2
f 5//3 6//3 9//3 8//3
f 5//4 2//4 1//4
f 2//5 5//5 8//5 4//5
f 5//6 1//6 6//6
f 6//7 3//7 7//7 9//7
f 1//8 3//8 6//8
f 7//9 4//9 10//9
f 8//10 9//10 10//10
f 9//11 7//11 10//11
f 4//12 8//12 10//12
